# xmcd CD database file
#
# Track frame offsets:
#	187
#	18322
#	33142
#
# Disc length: 700 seconds
#
# Revision: 0
# Processed by: cddbd v1.5.1PL0 Copyright (c) Steve Scherf et al.
# Submitted via: CD2WAV32(JP) R3.22
#
DISCID=1502ba03
DTITLE=Various Artist - 歌姫　オリジナルソング
DYEAR=1994
DGENRE=JPop
TTITLE0=ダンスはうまく踊れない
TTITLE1=片想い
TTITLE2=思秋期
EXTD=
EXTT0=
EXTT1=
EXTT2=
PLAYORDER=
